<?xml version="1.0" encoding="UTF-8" standalone="no"?>
<!-- Generator: Adobe Illustrator 16.0.0, SVG Export Plug-In . SVG Version: 6.00 Build 0)  -->

<svg
   version="1.1"
   id="Capa_1"
   x="0px"
   y="0px"
   width="256.79999"
   height="256.79999"
   viewBox="0 0 256.8 256.8"
   xml:space="preserve"
   xmlns="http://www.w3.org/2000/svg"
   xmlns:svg="http://www.w3.org/2000/svg"><defs
   id="defs47" />
<g
   id="g12"
   style="fill:#ffffff">
	<path
   d="m 233.787,42.137 c -0.108,-0.451 -0.233,-0.896 -0.419,-1.321 -0.094,-0.217 -0.229,-0.414 -0.342,-0.621 -0.141,-0.264 -0.27,-0.541 -0.436,-0.784 -0.16,-0.233 -0.357,-0.44 -0.538,-0.653 -0.166,-0.189 -0.311,-0.396 -0.492,-0.572 -0.191,-0.187 -0.409,-0.34 -0.616,-0.51 -0.207,-0.164 -0.404,-0.35 -0.632,-0.502 -0.207,-0.132 -0.435,-0.233 -0.642,-0.344 -0.26,-0.145 -0.503,-0.298 -0.771,-0.404 -0.265,-0.111 -0.544,-0.176 -0.813,-0.254 -0.243,-0.075 -0.472,-0.166 -0.725,-0.212 -0.425,-0.091 -0.86,-0.111 -1.29,-0.132 -0.119,-0.005 -0.223,-0.034 -0.347,-0.034 0,0 0,0 -0.01,0 -0.285,0 -0.575,0.055 -0.87,0.085 -0.27,0.031 -0.549,0.039 -0.813,0.096 h -0.01 l -69.269,14.618 c -3.836,0.813 -6.586,4.2 -6.586,8.125 v 25.145 c 0,0 0,0.011 0,0.021 v 32.084 c -4.691,-1.367 -9.994,-1.629 -15.395,-0.477 -14.794,3.138 -24.694,15.562 -22.108,27.742 2.584,12.168 16.677,19.5 31.471,16.353 13.085,-2.776 22.317,-12.801 22.504,-23.499 0.088,-0.477 0.14,-0.952 0.14,-1.439 V 90.472 73.48 65.461 l 52.646,-11.115 v 7.684 16.995 22.328 c -4.682,-1.367 -9.989,-1.628 -15.385,-0.489 -14.799,3.151 -24.699,15.568 -22.115,27.734 2.589,12.185 16.678,19.517 31.467,16.368 13.085,-2.771 22.318,-12.801 22.504,-23.506 0.088,-0.477 0.141,-0.956 0.141,-1.442 V 68.634 c 0,0 0,-0.011 0,-0.021 V 44.1 c 0,-0.01 0,-0.01 0,-0.018 0,-0.264 -0.053,-0.528 -0.083,-0.79 -0.026,-0.301 -0.036,-0.608 -0.099,-0.901 0,0 0,0 0,-0.01 -0.01,-0.086 -0.046,-0.153 -0.067,-0.244 z"
   id="path2"
   style="fill:#ffffff" />
	<path
   d="m 211.547,71.438 c -1.336,-3.404 -6.068,-6.268 -12.629,-7.959 l -29.412,6.209 v 15.27 h 42.041 z"
   id="path4"
   style="fill:#ffffff" />
	<path
   d="m 15.148,45.498 v 14.747 c 0,0 -3.394,0 -7.578,0 C 3.387,60.245 0,65.001 0,70.85 v 138.859 c 0,14.644 4.21,15.41 9.401,1.719 L 57.381,84.952 H 142.29 V 61.83 H 90.855 c 0,0 0,-6.962 0,-15.542 0,-8.583 -11.871,-15.544 -26.512,-15.544 H 41.661 C 27.015,30.753 15.148,37.353 15.148,45.498 Z"
   id="path6"
   style="fill:#ffffff" />
	<path
   d="m 189.063,94.555 h -13.266 v 11.301 c 3.346,-4.556 7.882,-8.453 13.266,-11.301 z"
   id="path8"
   style="fill:#ffffff" />
	<path
   d="m 255.302,119.467 c 4.091,-11.231 -0.486,-20.591 -10.242,-23.68 v 24.236 c 0,0.8 -0.057,1.605 -0.165,2.403 -0.679,15.462 -13.536,29.226 -30.872,32.912 -3.004,0.632 -6.054,0.963 -9.072,0.963 -12.614,0 -23.644,-5.51 -29.971,-14.25 -2.9,13.344 -14.784,24.622 -30.23,27.899 -2.992,0.637 -6.048,0.963 -9.062,0.963 -17.414,0 -31.799,-10.485 -34.986,-25.491 -1.893,-8.912 0.515,-18.419 6.618,-26.067 5.706,-7.159 14.11,-12.223 23.659,-14.253 2.316,-0.489 4.657,-0.785 6.998,-0.901 V 94.55 H 62.309 l -38.75,106.589 c -5,13.77 2.809,24.918 17.456,24.918 h 149.019 c 14.639,0 30.566,-11.159 35.573,-24.918 z"
   id="path10"
   style="fill:#ffffff" />
</g>















</svg>
