<?xml version="1.0" encoding="UTF-8" standalone="no"?>
<!-- Generator: Adobe Illustrator 16.0.0, SVG Export Plug-In . SVG Version: 6.00 Build 0)  -->

<svg
   version="1.1"
   id="Capa_1"
   x="0px"
   y="0px"
   width="254.83"
   height="254.83099"
   viewBox="0 0 254.83 254.831"
   xml:space="preserve"
   sodipodi:docname="quavers-pair-svgrepo-com.svg"
   xmlns:inkscape="http://www.inkscape.org/namespaces/inkscape"
   xmlns:sodipodi="http://sodipodi.sourceforge.net/DTD/sodipodi-0.dtd"
   xmlns="http://www.w3.org/2000/svg"
   xmlns:svg="http://www.w3.org/2000/svg"><defs
   id="defs39" /><sodipodi:namedview
   id="namedview37"
   pagecolor="#ffffff"
   bordercolor="#000000"
   borderopacity="0.25"
   inkscape:showpageshadow="2"
   inkscape:pageopacity="0.0"
   inkscape:pagecheckerboard="0"
   inkscape:deskcolor="#d1d1d1"
   showgrid="false" />
<g
   id="g4"
   style="fill:#ffffff;fill-opacity:1">
	<path
   d="M 224.774,178.355 V 42.865 13.753 0 L 79.044,52.499 v 8.223 35.325 99.319 c -4.5,-2.004 -9.528,-3.159 -14.867,-3.159 -18.84,0 -34.121,14.018 -34.121,31.312 0,17.294 15.281,31.312 34.121,31.312 18.191,0 33.013,-13.059 34.036,-29.51 h 0.101 V 89.015 L 205.506,49.899 v 98.496 c -4.51,-1.999 -9.532,-3.159 -14.871,-3.159 -18.833,0 -34.119,14.022 -34.119,31.317 0,17.29 15.286,31.307 34.119,31.307 18.196,0 33.016,-13.059 34.041,-29.505 z"
   id="path2"
   style="fill:#ffffff;fill-opacity:1" />
</g>















</svg>
